<svg id="Calque_1" data-name="Calque 1" xmlns="http://www.w3.org/2000/svg" viewBox="0 0 256 256"><defs><style>.cls-1{fill:#fff;}</style></defs><title>icon-plugin-256x256</title><rect width="256" height="256"/><g id="logo"><path id="soulignement" class="cls-1" d="M167.62,163.54a41.22,41.22,0,0,0-10.54-4.06c-4.9-1.25-24.87-1.9-31.05-1.84s-13.18.57-19,.88-17.43.94-26.4,4.18c-3.38,1.22-2.74,2.53-2.82,3s.94,1.78,3.1,1.78c.74,0,21-1.85,29.59-2.44a231.61,231.61,0,0,1,30.54.37l15.74,1.52c2,.18,9.25,2,11.23,2.51a37.73,37.73,0,0,0,4.78.69c1.46.22,1.14-.31,1.24-1S170.55,165.31,167.62,163.54Zm-30.69-4q-7-.25-12.78-.12a94.18,94.18,0,0,1,13.13-.52c4.89.12,10,.44,15.39,1Q144,159.8,136.93,159.54Z"/><g id="WeChef"><path id="f" class="cls-1" d="M232.29,124.78c.69-.62,1.32-1.17,1.9-1.65a2.56,2.56,0,0,1,1.4-.72c.27,0,.41.17.41.51a5.56,5.56,0,0,1-.72,2.17,47.66,47.66,0,0,1-4.23,7.31,17.58,17.58,0,0,1-5.25,4.85,24.08,24.08,0,0,1,.41,4.63,27.85,27.85,0,0,1-1.6,9.38,36.87,36.87,0,0,1-3.91,8,22.4,22.4,0,0,1-5,5.57,8.53,8.53,0,0,1-4.9,2.06,4.25,4.25,0,0,1-4.12-3,19.27,19.27,0,0,1-1.24-7.32,53.54,53.54,0,0,1,.83-8.81q.83-4.89,2.11-10.15t2.89-10.61q1.59-5.37,3.24-10.1c1.1-3.16,2.17-6.07,3.2-8.71s1.92-4.79,2.68-6.44a.79.79,0,0,1,.82-.52,3.62,3.62,0,0,1,1.8.67,10.45,10.45,0,0,1,2.06,1.7,10.13,10.13,0,0,1,1.65,2.27,4.92,4.92,0,0,1,.67,2.37,2.9,2.9,0,0,1-.31,1.34c-.61,1.24-1.25,2.54-1.9,3.91s-1.29,2.79-1.91,4.23-1.19,2.87-1.7,4.28-1,2.73-1.39,4a15.57,15.57,0,0,1,2.83,3.82c.73,1.37,1.36,2.71,1.91,4a10.22,10.22,0,0,0,2-1.86c.55-.68,1.1-1.41,1.65-2.16s1.11-1.57,1.7-2.43A23.3,23.3,0,0,1,232.29,124.78Zm-19.68,32.46c.06.27.27.41.62.41.54,0,1.28-.51,2.21-1.54a18.56,18.56,0,0,0,2.68-4.13,32.73,32.73,0,0,0,2.22-6,27.68,27.68,0,0,0,.92-7.22,2,2,0,0,0-.41.05,1.51,1.51,0,0,1-.41.06,5.74,5.74,0,0,1-3.71-1.34l-3.25,11.64a26,26,0,0,0-1.18,6.39A3.65,3.65,0,0,0,212.61,157.24Zm8.55-51.53a89.84,89.84,0,0,0-5.31,12,35.72,35.72,0,0,0-2.11,10.1,95.15,95.15,0,0,1,3.14-11.24Q218.79,111.07,221.16,105.71Zm1.34,45.76c-.07,0-.22.34-.47,1s-.46,1.27-.66,1.75a18.48,18.48,0,0,1-1.6,2.68c-.72,1-1.43,2-2.11,2.94s-1.29,1.7-1.81,2.32-.77.85-.77.72a21,21,0,0,0,4.84-5,21.19,21.19,0,0,0,2.58-5.36ZM221,135.29a19.61,19.61,0,0,0-1.95-5.87l-1,3.81A3.23,3.23,0,0,0,221,135.29Z"/><path id="e" class="cls-1" d="M212.81,124.88c1.65-1.37,2.75-2.06,3.3-2.06.2,0,.31.14.31.41a7.4,7.4,0,0,1-1.14,3l-1.23,2.16c-1.1,2-2.25,4-3.45,6.09a39.28,39.28,0,0,1-4,5.61,20.26,20.26,0,0,1-4.74,4.12,10.69,10.69,0,0,1-5.77,1.6,12.51,12.51,0,0,1-8.25-3,10,10,0,0,1-2.42-3,7.71,7.71,0,0,1-.88-3.55,24.78,24.78,0,0,1,1.65-8.3,39.41,39.41,0,0,1,4.33-8.6,30.45,30.45,0,0,1,6-6.75,10.58,10.58,0,0,1,6.65-2.74,6.92,6.92,0,0,1,5,2,6.13,6.13,0,0,1,2.05,4.54,11.6,11.6,0,0,1-1.51,5.41,23,23,0,0,1-3.78,5.2,22.23,22.23,0,0,1-5,3.92,10.15,10.15,0,0,1-5,1.54,4.16,4.16,0,0,1-1.66-.31,13,13,0,0,0-.31,1.45,11.61,11.61,0,0,0-.1,1.44,6.11,6.11,0,0,0,1,3.55q1,1.5,3.81,1.5a7.12,7.12,0,0,0,4.75-2,31,31,0,0,0,4.22-4.64c1.31-1.75,2.47-3.45,3.51-5.1A16.45,16.45,0,0,1,212.81,124.88ZM190,123.33c.27-.47.76-1.18,1.44-2.11s1.38-1.85,2.06-2.78,1.29-1.75,1.81-2.47a4.62,4.62,0,0,0,.77-1.29,25.65,25.65,0,0,0-5.62,6.75q-1.8,3.34-1.8,4.69c.14,0,.31-.38.52-1.14A3.63,3.63,0,0,1,190,123.33Zm2.94-.3a6.76,6.76,0,0,0,1.08-1.19c.66-.79,1.34-1.68,2.06-2.68s1.67-2.35,2.84-4.07a5.65,5.65,0,0,0-1,.93c-.62.62-1.29,1.36-2,2.21s-1.39,1.74-2,2.63A4.25,4.25,0,0,0,192.92,123Zm10.72-6.19a.92.92,0,0,0-.62-.31c-.69,0-1.53.61-2.52,1.81a32.69,32.69,0,0,0-2.89,4.12q-1.4,2.31-2.42,4.43a14.31,14.31,0,0,0-1.14,2.73,1.79,1.79,0,0,0,.73.1,5.14,5.14,0,0,0,3.5-1.49,16.61,16.61,0,0,0,2.88-3.45,20,20,0,0,0,2-4,10.18,10.18,0,0,0,.73-3.14A1.82,1.82,0,0,0,203.64,116.84Zm-5.72,12.78q4.91-2.37,6.44-9.38A18.6,18.6,0,0,1,197.92,129.62Z"/><path id="h" class="cls-1" d="M188.9,124.88a12.73,12.73,0,0,1,1.86-1.55,3,3,0,0,1,1.44-.61.46.46,0,0,1,.52.51,7.61,7.61,0,0,1-.83,2.27q-.82,1.75-2.16,4.12t-3,5q-1.65,2.63-3.35,4.9c-1.13,1.51-2.2,2.81-3.19,3.91a5.58,5.58,0,0,1-2.43,1.85,2.46,2.46,0,0,1-.92.21h-.93a6,6,0,0,1-3.61-1,6.24,6.24,0,0,1-2.06-2.63l-.1-.41a11.18,11.18,0,0,1-.62-3.91,24.71,24.71,0,0,1,.67-5.52c.44-2,.94-3.82,1.49-5.61s1.12-3.4,1.7-4.85,1.05-2.5,1.4-3.19a1,1,0,0,0,.1-.31.29.29,0,0,1,.1-.21,20.3,20.3,0,0,0-2.06,2.37q-1.55,2-3.5,5c-1.31,2-2.68,4.24-4.13,6.75s-2.78,5.07-4,7.68a18.4,18.4,0,0,0,.31,3.35,16,16,0,0,1,.3,2.52c0,.83-.34,1.24-1,1.24s-1.3-.48-1.85-1.45a4.6,4.6,0,0,1-2.89-3.09,18,18,0,0,1-.82-5.87,50.6,50.6,0,0,1,.93-9.22,98.49,98.49,0,0,1,2.42-10.1c1-3.41,2.09-6.7,3.3-9.9s2.36-6,3.5-8.5a51.51,51.51,0,0,1,3.09-5.92c.93-1.48,1.63-2.22,2.11-2.22a2,2,0,0,1,1.34.72,9.16,9.16,0,0,1,1.34,1.75,10.06,10.06,0,0,1,1,2.22,7.66,7.66,0,0,1,.36,2.22,4.06,4.06,0,0,1-.2,1.23q-3.09,7.53-5.93,14.53t-4.79,13.3c1.17-1.93,2.4-3.83,3.71-5.72a48.28,48.28,0,0,1,4-5,21.82,21.82,0,0,1,4-3.56,6.89,6.89,0,0,1,3.75-1.34,5.79,5.79,0,0,1,4,1.5,4.55,4.55,0,0,1,1.7,3.55,13.56,13.56,0,0,1-1.18,4q-1.19,2.94-2.63,6.6c-1,2.43-1.86,4.91-2.68,7.41a24.57,24.57,0,0,0-1.34,6.55,16.61,16.61,0,0,0,3.46-3.45q1.59-2.12,3-4.38c1-1.51,1.88-3,2.78-4.33A20.53,20.53,0,0,1,188.9,124.88Zm-31.74,3.71q1.44-5.57,3.61-12.26t4.64-15q-3,7.53-5.16,14.53A95.17,95.17,0,0,0,157.16,128.59Zm16.59-3.3a.49.49,0,0,1,.05-.2.42.42,0,0,0,.06-.21c0-.07,0-.1.1-.1-.27,0-.6.44-1,1.34a22.26,22.26,0,0,0-1,3.14c-.31,1.2-.57,2.39-.77,3.56a16,16,0,0,0-.31,2.47,11.54,11.54,0,0,0,.15,1.85c.11.62.19.93.26.93s.1-.41.1-1.24a1,1,0,0,0,0-.36,1.23,1.23,0,0,1-.05-.35,14.42,14.42,0,0,1,.26-2.38c.17-1,.37-2,.62-3s.51-2,.82-3S173.55,126,173.75,125.29Z"/><path id="C" class="cls-1" d="M147,114.16a2.88,2.88,0,0,1,.41-.62c.14-.13.21-.24.21-.3s-.21.27-.62,1l-1.34,2.47c-.48.89-.92,1.72-1.34,2.47a4.08,4.08,0,0,1-.72,1.14c.07,0-.05-.11-.36-.31s-.46-.76-.46-1.65l1.34-3.92.82-1.85a22.35,22.35,0,0,0,.82-2.22c.28-.86.57-1.7.88-2.52a11.73,11.73,0,0,1,1-2.06,1.42,1.42,0,0,1,1.14-.83,2.89,2.89,0,0,1,1.33.31c.28-.41.69-1,1.24-1.91s1.08-1.78,1.6-2.78a30.88,30.88,0,0,0,1.39-3.09,8,8,0,0,0,.62-2.83c0-1.72-.83-2.58-2.48-2.58a7.79,7.79,0,0,0-4.22,1.75,32.51,32.51,0,0,0-5.15,4.69,61,61,0,0,0-5.31,6.8,73.68,73.68,0,0,0-4.74,8,52.24,52.24,0,0,0-3.4,8.4,27.24,27.24,0,0,0-1.29,7.93,14.76,14.76,0,0,0,.57,4.07,11.33,11.33,0,0,0,1.7,3.61,8.51,8.51,0,0,0,2.88,2.58,8.34,8.34,0,0,0,4.12,1,15.31,15.31,0,0,0,5.52-1.14,25.9,25.9,0,0,0,5.66-3,31.73,31.73,0,0,0,5-4.32,18.55,18.55,0,0,0,3.4-4.9,1.53,1.53,0,0,1,1.55-1,2,2,0,0,1,1.18.41,1.34,1.34,0,0,1,.57,1.13,1.54,1.54,0,0,1-.2.83q-6,10.31-12.73,15.82t-13.24,5.51a16.2,16.2,0,0,1-12.22-5.36,18.65,18.65,0,0,1-3.5-5.87,20.49,20.49,0,0,1-1.29-7.32,34.56,34.56,0,0,1,1.6-10.1,57,57,0,0,1,4.22-10.2,73.94,73.94,0,0,1,6-9.43A62.47,62.47,0,0,1,136,94.07a36.43,36.43,0,0,1,6.95-5.36,12.49,12.49,0,0,1,6.08-2,13.61,13.61,0,0,1,4.49.82,17.84,17.84,0,0,1,4.32,2.27,13.44,13.44,0,0,1,3.3,3.35,7,7,0,0,1,1.29,4,13.69,13.69,0,0,1-.82,4,44.25,44.25,0,0,1-2.17,5.2,53.87,53.87,0,0,1-3.09,5.46c-1.17,1.83-2.32,3.47-3.45,5a25.49,25.49,0,0,1-3.3,3.61,4.63,4.63,0,0,1-2.73,1.39.54.54,0,0,1-.21-.05.39.39,0,0,0-.2,0,5.21,5.21,0,0,1-1.24-.31l-.88-.36q-.36-.17-.36-.36a9.56,9.56,0,0,1,.78-2.22Q145.31,117.26,147,114.16ZM141.6,94.27a14.32,14.32,0,0,0-4,2.73,36.86,36.86,0,0,0-4,4.38,48.8,48.8,0,0,0-3.46,5.11,42.54,42.54,0,0,0-2.47,4.79,33.33,33.33,0,0,1,2.42-4q1.8-2.69,3.92-5.41t4.17-4.95A9.25,9.25,0,0,1,141.6,94.27Zm-13.39,12.37A67,67,0,0,1,144,89.33Q132.84,96.74,128.21,106.64Zm19.16,32a15.64,15.64,0,0,1-9.48,3.6,13.14,13.14,0,0,1-6.59-1.75,11,11,0,0,0,6.9,2.58Q142.83,143,147.37,138.59Z"/><path id="e-2" data-name="e" class="cls-1" d="M119.55,124.88c1.65-1.37,2.75-2.06,3.3-2.06.2,0,.31.14.31.41a7.4,7.4,0,0,1-1.14,3l-1.23,2.16c-1.1,2-2.25,4-3.46,6.09a38.45,38.45,0,0,1-4,5.61,20.46,20.46,0,0,1-4.74,4.12,10.72,10.72,0,0,1-5.78,1.6,12.51,12.51,0,0,1-8.24-3,10,10,0,0,1-2.42-3,7.58,7.58,0,0,1-.88-3.55,24.78,24.78,0,0,1,1.65-8.3,39.41,39.41,0,0,1,4.33-8.6,30.2,30.2,0,0,1,6-6.75,10.57,10.57,0,0,1,6.64-2.74,6.92,6.92,0,0,1,5,2,6.12,6.12,0,0,1,2,4.54,11.58,11.58,0,0,1-1.5,5.41,23,23,0,0,1-3.78,5.2,22.45,22.45,0,0,1-5,3.92,10.15,10.15,0,0,1-5,1.54,4.16,4.16,0,0,1-1.66-.31,11.05,11.05,0,0,0-.31,1.45,10,10,0,0,0-.1,1.44,6,6,0,0,0,1,3.55q1,1.5,3.81,1.5a7.12,7.12,0,0,0,4.75-2,31.55,31.55,0,0,0,4.22-4.64q1.95-2.62,3.5-5.1A16.77,16.77,0,0,1,119.55,124.88Zm-22.83-1.55a24,24,0,0,1,1.44-2.11c.69-.92,1.37-1.85,2.06-2.78s1.29-1.75,1.81-2.47a4.62,4.62,0,0,0,.77-1.29,25.65,25.65,0,0,0-5.62,6.75q-1.8,3.34-1.8,4.69c.13,0,.31-.38.51-1.14A3.74,3.74,0,0,1,96.72,123.33Zm2.94-.3a6.76,6.76,0,0,0,1.08-1.19c.65-.79,1.34-1.68,2.06-2.68s1.67-2.35,2.84-4.07a5.29,5.29,0,0,0-1,.93c-.62.62-1.29,1.36-2,2.21s-1.39,1.74-2,2.63A4.25,4.25,0,0,0,99.66,123Zm10.72-6.19a.94.94,0,0,0-.62-.31c-.69,0-1.53.61-2.53,1.81a33.73,33.73,0,0,0-2.88,4.12q-1.39,2.31-2.42,4.43a14.31,14.31,0,0,0-1.14,2.73,1.77,1.77,0,0,0,.72.1,5.14,5.14,0,0,0,3.51-1.49,16.61,16.61,0,0,0,2.88-3.45,20,20,0,0,0,2-4,10.1,10.1,0,0,0,.72-3.14A1.81,1.81,0,0,0,110.38,116.84Zm-5.72,12.78q4.91-2.37,6.44-9.38A18.6,18.6,0,0,1,104.66,129.62Z"/><path id="W" class="cls-1" d="M98,88.5A13.59,13.59,0,0,1,99.2,92a19.93,19.93,0,0,1,.36,3.81,28.39,28.39,0,0,1-1.14,7.88q-1.12,4-2.37,7.27a112.29,112.29,0,0,1-9.17,18.6q-5.46,8.91-11,17.57l-.61.31a2.79,2.79,0,0,0-.47.05,2,2,0,0,1-.46.05,6.11,6.11,0,0,1-4.64-2,16.15,16.15,0,0,1-3-4.43,15.25,15.25,0,0,1-.41-3.81,59.13,59.13,0,0,1,1.08-11.18q1.08-5.61,2.12-11.08-4.65,9.07-9.23,18.14A145.06,145.06,0,0,0,52.36,152a2.16,2.16,0,0,0,.67.62.76.76,0,0,1,.36.72,1.14,1.14,0,0,1-.77,1.14,4.73,4.73,0,0,1-1.71.31,7.44,7.44,0,0,1-3.45-.83,10,10,0,0,1-2.78-2.11,9.26,9.26,0,0,1-1.85-3,10,10,0,0,1-.67-3.61,17.45,17.45,0,0,1,.46-4,41,41,0,0,1,1.13-4c.45-1.31.91-2.58,1.39-3.82s.9-2.36,1.24-3.4l.52-1.54q2.57-7.74,4.69-15.77A65.38,65.38,0,0,0,53.7,96.13a15.6,15.6,0,0,0-.52-4.23c-.34-1.23-1-1.85-2.06-1.85a7.41,7.41,0,0,0-4.43,1.85A32.08,32.08,0,0,0,42,96.59a58.11,58.11,0,0,0-4.54,6.29c-1.44,2.3-2.73,4.52-3.86,6.64a52.08,52.08,0,0,0-2.68,5.78,12.37,12.37,0,0,0-1,3.6,2.55,2.55,0,0,0,.26,1.14,2.28,2.28,0,0,1,.26,1c0,.89-.48,1.34-1.44,1.34a6.52,6.52,0,0,1-3.1-.83A13.57,13.57,0,0,1,23,119.52a11.45,11.45,0,0,1-2.17-2.63,5,5,0,0,1-.82-2.52,10.94,10.94,0,0,1,1.34-5.05,26.66,26.66,0,0,1,3.45-5,53.83,53.83,0,0,1,4.59-4.74C31,98,32.57,96.64,34,95.41a46,46,0,0,1,3.77-2.89,43.88,43.88,0,0,1,4.74-2.88,33.45,33.45,0,0,1,5.2-2.22,16.68,16.68,0,0,1,5.15-.88,9,9,0,0,1,4.74,1.19,9.19,9.19,0,0,1,3.15,3.14,15,15,0,0,1,1.75,4.54,25.19,25.19,0,0,1,.57,5.46,44.92,44.92,0,0,1-1.24,10.36c-.82,3.47-1.62,6.51-2.37,9.12a1.1,1.1,0,0,0-.1.51,19.06,19.06,0,0,1-1,2.89c-.49,1.1-1,2.13-1.45,3.09s-1.06,2.16-1.75,3.61c.41,0,1.1-.93,2.06-2.79s2.06-4.08,3.3-6.7,2.51-5.35,3.81-8.24,2.44-5.32,3.4-7.32a116,116,0,0,1-6.08,15.41,123.28,123.28,0,0,1-6.28,11.28,4.71,4.71,0,0,0-.67,1.19.89.89,0,0,1-.26.46c.48,0,1.1-.6,1.85-1.8a42.89,42.89,0,0,0,2.53-4.84c.93-2,1.92-4.31,3-6.86L65,112.46q1.65-4,3.25-7.83t3.14-6.85l.21-.41h.62A9,9,0,0,1,76,98.65a7,7,0,0,1,2.32,2.48,10.43,10.43,0,0,1,1.13,3.35,22.61,22.61,0,0,1,.31,3.81V110c0,.58,0,1.19-.1,1.8q-.93,6.18-1.75,12.42c-.56,4.16-1.1,8.26-1.65,12.31A99.54,99.54,0,0,0,81,126.84q2.1-5.06,3.65-10.15A86.81,86.81,0,0,0,87,106.54a57.16,57.16,0,0,0,.87-9.69,18.51,18.51,0,0,0-.31-3.14,2.77,2.77,0,0,0-1.54-2.32,7.1,7.1,0,0,1-1.24-.21,1.06,1.06,0,0,1-.93-1.13,2.14,2.14,0,0,1,1-1.6,9.87,9.87,0,0,1,2.37-1.34,21,21,0,0,1,3-.93A12.73,12.73,0,0,1,93,85.82a7,7,0,0,1,2.84.62A4.77,4.77,0,0,1,98,88.5ZM22.47,117.25a5.14,5.14,0,0,1-.62-2.68q0-3.6,3.71-9.68-4.32,5.86-4.32,9.38A4.07,4.07,0,0,0,22.47,117.25Zm28.65.31A56.92,56.92,0,0,0,55,98a47.32,47.32,0,0,0-.31-5.25,13,13,0,0,1,.1,1.65V96Q54.83,104.79,51.12,117.56ZM87.71,126Q98,108.09,98.53,95.41A79.83,79.83,0,0,1,94.15,111Q91.21,118.39,87.71,126Zm1.13-6.49a4.07,4.07,0,0,1,.41-.82,62.16,62.16,0,0,0,3.66-9.38A79.85,79.85,0,0,0,95,99.84a1.65,1.65,0,0,0-.31.82q-.4,2.07-.87,3.87t-1.08,3.81c-.42,1.34-.9,2.78-1.45,4.33s-1.2,3.35-2,5.41A11.35,11.35,0,0,1,88.84,119.52Z"/></g></g></svg>